# xmcd
#
# Track frame offsets: 
#        187
#        16362
#        31950
#        51750
#        65347
#        86175
#        107822
#        122775
#        140450
#        158787
#        184700
#
# Disc length: 2766 seconds
#
# Revision: 1
# Processed by: cddbd v1.5.2PL0 Copyright (c) Steve Scherf et al.
# Submitted via: ExactAudioCopyFreeDBPlugin 1.0
#
DISCID=920acc0b
DTITLE=国府弘子 - Light and Colour
DYEAR=1991
DGENRE=Jazz
TTITLE0=MOON ISLAND
TTITLE1=PEPINO BEACH
TTITLE2=PASSARADA
TTITLE3=MY ONLY LOVER
TTITLE4=SAMBA DO CAMARAO
TTITLE5=TIP-TOP FUNK
TTITLE6=THE MOMENT WE SHARE
TTITLE7=BLUE LULLABY
TTITLE8=BOSSA CALANGO
TTITLE9=EL HUMAHUAQUENO
TTITLE10=GONE...
EXTD=YEAR: 1991
EXTT0=
EXTT1=
EXTT2=
EXTT3=
EXTT4=
EXTT5=
EXTT6=
EXTT7=
EXTT8=
EXTT9=
EXTT10=
PLAYORDER=
